<?xml version="1.0" encoding="UTF-8" standalone="no"?>
<!-- Created with Inkscape (http://www.inkscape.org/) -->

<svg
   xmlns:dc="http://purl.org/dc/elements/1.1/"
   xmlns:cc="http://creativecommons.org/ns#"
   xmlns:rdf="http://www.w3.org/1999/02/22-rdf-syntax-ns#"
   xmlns:svg="http://www.w3.org/2000/svg"
   xmlns="http://www.w3.org/2000/svg"
   xmlns:sodipodi="http://sodipodi.sourceforge.net/DTD/sodipodi-0.dtd"
   xmlns:inkscape="http://www.inkscape.org/namespaces/inkscape"
   width="600"
   height="600"
   viewBox="0 0 158.75 158.75001"
   version="1.1"
   id="svg6637"
   inkscape:version="0.92.4 (5da689c313, 2019-01-14)"
   sodipodi:docname="ReolMedTekst2.svg"
   inkscape:export-filename="P:\Shelfer\Logoer\ShelferLogo\Logo.png"
   inkscape:export-xdpi="327.67999"
   inkscape:export-ydpi="327.67999">
  <defs
     id="defs6631" />
  <sodipodi:namedview
     id="base"
     pagecolor="#ffffff"
     bordercolor="#666666"
     borderopacity="1.0"
     inkscape:pageopacity="0.0"
     inkscape:pageshadow="2"
     inkscape:zoom="1.979899"
     inkscape:cx="193.93414"
     inkscape:cy="267.28437"
     inkscape:document-units="mm"
     inkscape:current-layer="layer1"
     showgrid="true"
     inkscape:window-width="3000"
     inkscape:window-height="1920"
     inkscape:window-x="-11"
     inkscape:window-y="-11"
     inkscape:window-maximized="1"
     showguides="false"
     units="px"
     inkscape:lockguides="false">
    <inkscape:grid
       type="xygrid"
       id="grid6639" />
  </sodipodi:namedview>
  <metadata
     id="metadata6634">
    <rdf:RDF>
      <cc:Work
         rdf:about="">
        <dc:format>image/svg+xml</dc:format>
        <dc:type
           rdf:resource="http://purl.org/dc/dcmitype/StillImage" />
        <dc:title></dc:title>
      </cc:Work>
    </rdf:RDF>
  </metadata>
  <g
     inkscape:label="Layer 1"
     inkscape:groupmode="layer"
     id="layer1"
     transform="translate(0,-138.24997)">
    <rect
       style="opacity:1;fill:#ffffff;fill-opacity:1;stroke:#ffffff;stroke-width:1.85208333;stroke-linecap:square;stroke-linejoin:miter;stroke-miterlimit:4;stroke-dasharray:none;stroke-opacity:1;paint-order:normal"
       id="rect4531"
       width="313.53128"
       height="273.84375"
       x="-337.34378"
       y="282.44788"
       inkscape:export-filename="P:\Shelfer\Logoer\ShelferLogo\Logo.png"
       inkscape:export-xdpi="327"
       inkscape:export-ydpi="327" />
    <path
       style="fill:none;stroke:#90ee90;stroke-width:1.85208333;stroke-linecap:square;stroke-linejoin:miter;stroke-miterlimit:4;stroke-dasharray:none;stroke-opacity:1;paint-order:normal"
       d="m 16.536461,187.66091 v 60.85417 -9.26042 H 65.484378 16.536461 l -10e-7,-43.65625 h 47.625001"
       id="path6645"
       inkscape:connector-curvature="0"
       sodipodi:nodetypes="ccccccc" />
    <path
       style="fill:none;stroke:#90ee90;stroke-width:1.85208333;stroke-linecap:square;stroke-linejoin:miter;stroke-miterlimit:4;stroke-dasharray:none;stroke-opacity:1"
       d="m 142.21354,187.66091 v 60.85417 -9.26042 H 93.265628 142.21354 V 195.59841 H 94.588541"
       id="path6645-9"
       inkscape:connector-curvature="0"
       sodipodi:nodetypes="ccccccc" />
    <g
       aria-label="SHELFER"
       transform="matrix(0.92419972,0,0,1.0820172,0.66146051,-25.995314)"
       style="font-style:normal;font-variant:normal;font-weight:normal;font-stretch:normal;font-size:30.59124184px;line-height:1.25;font-family:'MS UI Gothic';-inkscape-font-specification:'MS UI Gothic';letter-spacing:0px;word-spacing:0px;fill:#90ee90;fill-opacity:1;stroke:none;stroke-width:0.26458332"
       id="text6643-6">
      <path
         d="m 25.801707,230.31885 3.569974,-0.76179 q 0.642297,3.03224 4.929253,3.03224 1.956764,0 3.002363,-0.77673 1.060536,-0.77673 1.060536,-1.92689 0,-0.83648 -0.477988,-1.53853 -0.477988,-0.71698 -2.046386,-1.12028 l -3.898591,-1.01573 q -2.001576,-0.5228 -2.957552,-1.18003 -0.955976,-0.67217 -1.538524,-1.88208 -0.567611,-1.20991 -0.567611,-2.58412 0,-2.7335 2.031449,-4.37658 2.03145,-1.65802 5.198121,-1.65802 2.628935,0 4.690259,1.15016 2.076261,1.15016 2.643872,3.25629 l -3.495288,0.86635 q -0.806605,-2.31525 -3.764157,-2.31525 -1.71777,0 -2.628935,0.71698 -0.896228,0.71698 -0.896228,1.82233 0,1.74765 2.838055,2.44969 l 3.465414,0.86635 q 3.151735,0.79167 4.227208,2.34513 1.075473,1.53853 1.075473,3.40567 0,3.00236 -2.270443,4.73507 -2.255507,1.71777 -5.855355,1.71777 -3.032238,0 -5.317619,-1.26966 -2.270443,-1.26965 -3.0173,-3.95834 z"
         style="font-style:normal;font-variant:normal;font-weight:normal;font-stretch:normal;font-family:'Franklin Gothic Medium';-inkscape-font-specification:'Franklin Gothic Medium, ';fill:#90ee90;fill-opacity:1;stroke-width:0.26458332"
         id="path817"
         inkscape:connector-curvature="0" />
      <path
         d="m 60.575345,235.23317 h -3.674534 v -8.85772 h -7.782245 v 8.85772 h -3.674534 v -20.38918 h 3.674534 v 8.37973 h 7.782245 v -8.37973 h 3.674534 z"
         style="font-style:normal;font-variant:normal;font-weight:normal;font-stretch:normal;font-family:'Franklin Gothic Medium';-inkscape-font-specification:'Franklin Gothic Medium, ';fill:#90ee90;fill-opacity:1;stroke-width:0.26458332"
         id="path819"
         inkscape:connector-curvature="0" />
      <path
         d="M 78.290779,235.23317 H 65.041545 v -20.38918 h 13.1148 v 3.03223 h -9.440266 v 5.52674 h 7.588062 v 2.95755 h -7.588062 v 5.70599 h 9.5747 z"
         style="font-style:normal;font-variant:normal;font-weight:normal;font-stretch:normal;font-family:'Franklin Gothic Medium';-inkscape-font-specification:'Franklin Gothic Medium, ';fill:#90ee90;fill-opacity:1;stroke-width:0.26458332"
         id="path821"
         inkscape:connector-curvature="0" />
      <path
         d="M 94.019581,235.23317 H 81.472392 v -20.38918 h 3.868717 v 17.0582 h 8.678472 z"
         style="font-style:normal;font-variant:normal;font-weight:normal;font-stretch:normal;font-family:'Franklin Gothic Medium';-inkscape-font-specification:'Franklin Gothic Medium, ';fill:#90ee90;fill-opacity:1;stroke-width:0.26458332"
         id="path823"
         inkscape:connector-curvature="0" />
      <path
         d="m 100.48736,235.23317 h -3.779097 v -20.38918 h 12.890747 v 3.15173 h -9.11165 v 5.57155 h 7.16982 v 3.06211 h -7.16982 z"
         style="font-style:normal;font-variant:normal;font-weight:normal;font-stretch:normal;font-family:'Franklin Gothic Medium';-inkscape-font-specification:'Franklin Gothic Medium, ';fill:#90ee90;fill-opacity:1;stroke-width:0.26458332"
         id="path825"
         inkscape:connector-curvature="0" />
      <path
         d="m 125.49211,235.23317 h -13.24923 v -20.38918 h 13.1148 v 3.03223 h -9.44027 v 5.52674 h 7.58806 v 2.95755 h -7.58806 v 5.70599 h 9.5747 z"
         style="font-style:normal;font-variant:normal;font-weight:normal;font-stretch:normal;font-family:'Franklin Gothic Medium';-inkscape-font-specification:'Franklin Gothic Medium, ';fill:#90ee90;fill-opacity:1;stroke-width:0.26458332"
         id="path827"
         inkscape:connector-curvature="0" />
      <path
         d="m 144.56683,235.23317 h -3.88365 l -3.16667,-8.37973 h -5.16825 v 8.37973 h -3.67454 v -20.38918 h 8.84279 q 3.68947,0 5.42217,1.67296 1.73271,1.65802 1.73271,4.30189 0,3.92846 -3.67453,5.40724 z m -12.21857,-11.32234 h 4.57076 q 1.98664,0 2.95755,-0.83648 0.97092,-0.83648 0.97092,-2.30032 0,-1.34434 -0.95598,-2.16589 -0.95598,-0.83648 -2.67375,-0.83648 h -4.8695 z"
         style="font-style:normal;font-variant:normal;font-weight:normal;font-stretch:normal;font-family:'Franklin Gothic Medium';-inkscape-font-specification:'Franklin Gothic Medium, ';fill:#90ee90;fill-opacity:1;stroke-width:0.26458332"
         id="path829"
         inkscape:connector-curvature="0" />
    </g>
  </g>
</svg>
