<svg width="680" height="160" viewBox="0 0 680 160" fill="none" xmlns="http://www.w3.org/2000/svg">
<path d="M52.5604 160C42.9243 160 33.5072 158.239 24.3092 154.718C15.1111 151.05 7.00805 145.841 0 139.092L17.3011 118.404C22.5572 123.099 28.3242 126.841 34.6023 129.629C41.0263 132.416 47.2313 133.81 53.2174 133.81C60.2254 133.81 65.5545 132.49 69.2045 129.849C73.0005 127.061 74.8986 123.246 74.8986 118.404C74.8986 115.323 74.0226 112.756 72.2705 110.702C70.6645 108.647 68.5475 106.96 65.9195 105.64C63.4375 104.319 59.3494 102.485 53.6554 100.138L34.8213 91.9945C26.3532 88.4732 19.4181 83.558 14.0161 77.249C8.61406 70.7932 5.91304 62.7235 5.91304 53.0399C5.91304 45.2636 8.03006 38.221 12.2641 31.912C16.6441 25.4562 22.6302 20.3943 30.2222 16.7263C37.8143 12.9115 46.3553 11.0041 55.8454 11.0041C64.1675 11.0041 72.3435 12.6914 80.3736 16.066C88.4036 19.2939 95.3387 23.8423 101.179 29.7111L86.0676 48.8583C81.1036 44.8968 76.2126 41.9624 71.3945 40.055C66.5765 38.1476 61.3935 37.194 55.8454 37.194C49.8594 37.194 45.1143 38.4411 41.6103 40.9353C38.1063 43.4296 36.3543 46.8776 36.3543 51.2792C36.3543 54.3604 37.2303 56.928 38.9823 58.9821C40.8803 61.0362 43.1433 62.7235 45.7713 64.044C48.5454 65.3645 52.7794 67.1985 58.4734 69.5461L76.8696 77.0289C86.0676 80.8437 93.1487 85.9055 98.1127 92.2146C103.077 98.3769 105.559 106.3 105.559 115.983C105.559 124.053 103.442 131.463 99.2077 138.212C94.9737 144.814 88.8416 150.096 80.8116 154.058C72.7815 158.019 63.3645 160 52.5604 160Z" fill="#CBE6DF"/>
<path d="M127.844 2.641H157.628V41.1554L156.314 61.403C161.424 56.5612 166.68 52.7464 172.082 49.9587C177.484 47.171 183.543 45.7772 190.259 45.7772C201.647 45.7772 210.043 49.5919 215.445 57.2215C220.993 64.7043 223.767 75.4883 223.767 89.5736V157.359H193.763V93.315C193.763 85.2453 192.595 79.5965 190.259 76.3686C188.069 73.1408 184.419 71.5268 179.309 71.5268C175.221 71.5268 171.644 72.4072 168.578 74.1678C165.512 75.9285 161.862 78.8629 157.628 82.9711V157.359H127.844V2.641Z" fill="#CBE6DF"/>
<path d="M341.892 97.9367C341.892 103.512 341.454 108.061 340.578 111.582H273.564C275.024 120.238 278.528 126.621 284.076 130.729C289.77 134.837 296.34 136.891 303.786 136.891C311.524 136.891 319.554 134.47 327.876 129.629L337.731 147.895C332.329 151.71 326.27 154.718 319.554 156.919C312.984 158.973 306.414 160 299.844 160C289.624 160 280.353 157.726 272.031 153.177C263.855 148.629 257.358 142.027 252.54 133.37C247.868 124.713 245.532 114.59 245.532 102.999C245.532 91.5543 247.868 81.5039 252.54 72.8473C257.358 64.1907 263.636 57.5149 271.374 52.8198C279.112 48.1247 287.361 45.7772 296.121 45.7772C310.867 45.7772 322.182 50.619 330.066 60.3026C337.95 69.8395 341.892 82.3842 341.892 97.9367ZM316.269 91.5543C316.269 84.5117 314.663 79.0096 311.451 75.0481C308.239 70.9399 303.348 68.8858 296.778 68.8858C291.376 68.8858 286.558 70.7932 282.324 74.608C278.236 78.276 275.462 83.9248 274.002 91.5543H316.269Z" fill="#CBE6DF"/>
<path d="M392.41 160C382.628 160 375.547 156.992 371.167 150.977C366.787 144.961 364.597 136.451 364.597 125.447V2.641H394.381V126.768C394.381 129.849 394.965 132.123 396.133 133.59C397.301 134.911 398.615 135.571 400.075 135.571C401.535 135.571 402.849 135.424 404.017 135.131L407.74 157.579C403.506 159.193 398.396 160 392.41 160Z" fill="#CBE6DF"/>
<path d="M473.933 23.7689C465.465 23.7689 461.231 29.271 461.231 40.2751V48.4182H481.16V72.1871H461.231V157.359H431.228V72.1871H416.774V49.7387L431.228 48.6382V40.9353C431.228 28.6107 434.294 18.707 440.426 11.2242C446.704 3.7414 456.486 0 469.772 0C477.364 0 484.372 1.3205 490.796 3.96149L485.321 26.1898C481.379 24.5759 477.583 23.7689 473.933 23.7689Z" fill="#CBE6DF"/>
<path d="M586.558 97.9367C586.558 103.512 586.12 108.061 585.244 111.582H518.23C519.69 120.238 523.194 126.621 528.742 130.729C534.436 134.837 541.006 136.891 548.452 136.891C556.19 136.891 564.22 134.47 572.542 129.629L582.397 147.895C576.995 151.71 570.936 154.718 564.22 156.919C557.65 158.973 551.08 160 544.51 160C534.29 160 525.019 157.726 516.697 153.177C508.521 148.629 502.023 142.027 497.205 133.37C492.533 124.713 490.197 114.59 490.197 102.999C490.197 91.5543 492.533 81.5039 497.205 72.8473C502.023 64.1907 508.302 57.5149 516.04 52.8198C523.778 48.1247 532.027 45.7772 540.787 45.7772C555.533 45.7772 566.848 50.619 574.732 60.3026C582.616 69.8395 586.558 82.3842 586.558 97.9367ZM560.935 91.5543C560.935 84.5117 559.329 79.0096 556.117 75.0481C552.905 70.9399 548.014 68.8858 541.444 68.8858C536.042 68.8858 531.224 70.7932 526.99 74.608C522.902 78.276 520.128 83.9248 518.668 91.5543H560.935Z" fill="#CBE6DF"/>
<path d="M609.263 48.4182H633.572L635.762 67.5653H636.638C640.434 60.5227 645.033 55.1674 650.435 51.4993C655.983 47.6845 661.604 45.7772 667.298 45.7772C672.408 45.7772 676.642 46.5108 680 47.978L674.963 73.9477C674.525 73.801 673.211 73.5076 671.021 73.0674C668.831 72.4805 666.349 72.1871 663.575 72.1871C658.903 72.1871 654.377 73.8744 649.997 77.249C645.617 80.6236 641.967 85.9055 639.047 93.0949V157.359H609.263V48.4182Z" fill="#CBE6DF"/>
</svg>
